<svg width="369" height="369" viewBox="0 0 369 369" fill="none" xmlns="http://www.w3.org/2000/svg">
<g style="mix-blend-mode:multiply">
<path d="M369 184.5C369 286.397 286.397 369 184.5 369C82.6035 369 0 286.397 0 184.5C0 82.6035 82.6035 0 184.5 0C286.397 0 369 82.6035 369 184.5Z" fill="#FBFF26" fill-opacity="0.34"/>
</g>
<rect x="127.339" y="133.467" width="53.1059" height="11.2339" rx="5.61697" fill="#D9D9D9"/>
<g filter="url(#filter0_d_1_38)">
<rect x="114.063" y="87.51" width="139.914" height="176.679" rx="6" fill="#EFEEEE"/>
</g>
<rect x="127.339" y="115.084" width="53.1059" height="11.2339" rx="5.61697" fill="#1E619E"/>
<rect x="127.339" y="138.573" width="94.9779" height="11.2339" rx="5.61697" fill="#8190AF"/>
<rect x="127.339" y="164.105" width="64.3398" height="11.2339" rx="5.61697" fill="#B9C5DB"/>
<rect x="127.339" y="194.743" width="94.9779" height="11.2339" rx="5.61697" fill="#A9A9AA"/>
<rect x="127.339" y="230.487" width="94.9779" height="11.2339" rx="5.61697" fill="#ACB5B8"/>
<rect width="19.4306" height="97.6384" rx="9.71531" transform="matrix(0.78854 -0.614983 0.623779 0.781601 263.773 288.41)" fill="#1C4C96"/>
<path d="M285.52 180.715C311.091 212.756 305.558 259.244 273.118 284.544C240.678 309.844 193.654 304.345 168.084 272.304C142.513 240.264 148.046 193.776 180.486 168.476C212.926 143.176 259.949 148.675 285.52 180.715Z" stroke="#1C4C96" stroke-width="11"/>
<rect width="83.4507" height="12.3029" rx="5" transform="matrix(0.617844 -0.7863 -0.7863 -0.617844 207.104 263.219)" fill="black"/>
<rect width="83.4507" height="12.3029" rx="5" transform="matrix(-0.693062 -0.720878 -0.720878 0.693062 260.853 253.653)" fill="black"/>
<defs>
<filter id="filter0_d_1_38" x="110.063" y="87.51" width="147.914" height="184.679" filterUnits="userSpaceOnUse" color-interpolation-filters="sRGB">
<feFlood flood-opacity="0" result="BackgroundImageFix"/>
<feColorMatrix in="SourceAlpha" type="matrix" values="0 0 0 0 0 0 0 0 0 0 0 0 0 0 0 0 0 0 127 0" result="hardAlpha"/>
<feOffset dy="4"/>
<feGaussianBlur stdDeviation="2"/>
<feComposite in2="hardAlpha" operator="out"/>
<feColorMatrix type="matrix" values="0 0 0 0 0 0 0 0 0 0 0 0 0 0 0 0 0 0 0.25 0"/>
<feBlend mode="normal" in2="BackgroundImageFix" result="effect1_dropShadow_1_38"/>
<feBlend mode="normal" in="SourceGraphic" in2="effect1_dropShadow_1_38" result="shape"/>
</filter>
</defs>
</svg>
